<?xml version="1.0" standalone="no"?><!DOCTYPE svg PUBLIC "-//W3C//DTD SVG 1.1//EN" "http://www.w3.org/Graphics/SVG/1.1/DTD/svg11.dtd"><svg t="1688285084865" class="icon" viewBox="0 0 1024 1024" version="1.1" xmlns="http://www.w3.org/2000/svg" p-id="1592" xmlns:xlink="http://www.w3.org/1999/xlink" width="512" height="512"><path d="M796.705 899.455c1.612 0 3.052-0.577 4.319-1.731 1.266-1.154 2.13-2.654 2.59-4.5l5.183-37.73c7.141-2.77 15.318-7.5 24.532-14.193l35.587 14.192c1.843 0.692 3.513 0.808 5.01 0.346 1.497-0.461 2.706-1.5 3.628-3.115l29.022-49.846a8.176 8.176 0 0 0 1.037-5.193c-0.23-1.846-1.037-3.346-2.419-4.5l-30.059-23.538c0.46-3.23 0.691-7.962 0.691-14.192 0-6.231-0.23-10.962-0.69-14.193l30.058-23.538c1.382-1.154 2.189-2.654 2.419-4.5a8.176 8.176 0 0 0-1.037-5.192l-29.022-49.847c-0.922-1.615-2.131-2.653-3.628-3.115-1.497-0.461-3.167-0.346-5.01 0.346l-35.587 14.193c-7.371-6-15.548-10.731-24.532-14.193l-5.182-37.73c-0.46-1.847-1.325-3.347-2.591-4.5-1.267-1.154-2.707-1.731-4.32-1.731h-58.045c-1.612 0-3.052 0.577-4.319 1.73-1.266 1.154-2.015 2.654-2.245 4.5l-5.528 37.731c-7.832 3.231-15.894 7.962-24.186 14.193l-35.933-14.193c-3.685-1.615-6.565-0.692-8.638 2.77l-29.022 49.846a8.176 8.176 0 0 0-1.037 5.192c0.23 1.846 1.037 3.346 2.419 4.5l30.404 23.538c-0.46 3.231-0.69 7.962-0.69 14.193v0.804c0.02 5.835 0.25 10.298 0.69 13.388l-30.404 23.538c-1.382 1.154-2.189 2.654-2.419 4.5a8.176 8.176 0 0 0 1.037 5.193l29.022 49.846c2.073 3.461 4.953 4.385 8.638 2.77l35.933-14.193c6.45 5.538 14.511 10.27 24.186 14.192l5.528 37.73c0.23 1.847 0.979 3.347 2.245 4.5 1.267 1.155 2.707 1.732 4.32 1.732h58.045z m-28.695-94c-8.963 0-17.293-2.298-24.992-6.895-7.698-4.596-13.846-10.743-18.442-18.441-4.596-7.699-6.894-16.03-6.894-24.992s2.298-17.35 6.894-25.164c4.596-7.813 10.744-14.018 18.442-18.614 7.699-4.596 16.03-6.894 24.992-6.894s17.35 2.298 25.163 6.894c7.814 4.596 14.019 10.8 18.615 18.614 4.596 7.814 6.894 16.202 6.894 25.164s-2.298 17.293-6.894 24.992c-4.596 7.698-10.801 13.845-18.615 18.441-7.813 4.597-16.2 6.895-25.163 6.895z" fill="#40AB37" p-id="1593"></path><path d="M294.619892 93.34542m25.455844 25.455844l0 0q25.455844 25.455844 0 50.911688l-144.249784 144.249784q-25.455844 25.455844-50.911688 0l0 0q-25.455844-25.455844 0-50.911688l144.249784-144.249784q25.455844-25.455844 50.911688 0Z" fill="#40AB37" p-id="1594"></path><path d="M870.204941 383.259371m25.455844 25.455844l0 0q25.455844 25.455844 0 50.911688l-91.923882 91.923882q-25.455844 25.455844-50.911688 0l0 0q-25.455844-25.455844 0-50.911688l91.923882-91.923882q25.455844-25.455844 50.911688 0Z" fill="#40AB37" p-id="1595"></path><path d="M537.865115 715.599196m25.455844 25.455845l0 0q25.455844 25.455844 0 50.911688l-107.48023 107.48023q-25.455844 25.455844-50.911688 0l0 0q-25.455844-25.455844 0-50.911688l107.48023-107.48023q25.455844-25.455844 50.911688 0Z" fill="#40AB37" p-id="1596"></path><path d="M865.96255 99.001761m25.455844 25.455845l0 0q25.455844 25.455844 0 50.911688l-292.0351 292.0351q-25.455844 25.455844-50.911688 0l0 0q-25.455844-25.455844 0-50.911688l292.0351-292.0351q25.455844-25.455844 50.911688 0Z" fill="#40AB37" p-id="1597"></path><path d="M455.840851 509.124461m25.455844 25.455844l0 0q25.455844 25.455844 0 50.911688l-302.641702 302.641702q-25.455844 25.455844-50.911688 0l0 0q-25.455844-25.455844 0-50.911688l302.641702-302.641702q25.455844-25.455844 50.911688 0Z" fill="#40AB37" p-id="1598"></path><path d="M573.574394 102.890918m25.455844 25.455844l0 0q25.455844 25.455844 0 50.911688l-415.778788 415.778788q-25.455844 25.455844-50.911688 0l0 0q-25.455844-25.455844 0-50.911688l415.778788-415.778788q25.455844-25.455844 50.911688 0Z" fill="#40AB37" p-id="1599"></path></svg>